<svg width="32" height="28" viewBox="0 0 32 28" fill="none" xmlns="http://www.w3.org/2000/svg">
<path d="M25.9062 3.5C25.2109 3.5 24.2422 3.52734 23.2188 3.60938C21.1719 3.77686 18.8086 4.07764 17.3438 5.35938C16.1133 6.43604 13.5703 9.29346 11.2188 11.9766C10.7539 12.5063 10.7734 12.4961 10.3438 12.9883L8.625 12.9062C7.34766 12.8481 6.11719 13.3198 5.3125 14.1914L3.21875 16.4336L2.1875 17.582L3.8125 17.8555L7.09375 18.4297L10.9375 21.793L11.5938 24.6641L11.9375 26.0859L13.2188 25.1836L15.7812 23.3516C16.7773 22.6475 17.3164 21.5708 17.25 20.4531L17.1562 18.9766C17.7383 18.5903 17.7188 18.6006 18.3438 18.1836C21.418 16.1226 24.6953 13.9111 25.9062 12.8516C27.3594 11.5801 27.6836 9.48145 27.875 7.68359C28.0664 5.88574 27.9688 4.34766 27.9688 4.34766L27.9375 3.55469L27.0312 3.52734C27.0312 3.52734 26.6016 3.5 25.9062 3.5ZM25 5.25C25.3984 5.25 25.6797 5.27051 25.9688 5.27734C25.9805 5.78662 26.0039 6.31641 25.875 7.51953C25.6992 9.17725 25.1211 11.0229 24.4688 11.5938C23.5781 12.373 20.1875 14.7349 17.125 16.7891C14.418 18.604 12.5117 19.8789 11.9688 20.2344L8.90625 17.5547C9.31641 17.0728 10.7188 15.3979 12.7812 13.043C15.125 10.3701 17.832 7.39307 18.75 6.58984C19.4336 5.9917 21.5195 5.48584 23.4062 5.33203C24.0898 5.27734 24.6016 5.25 25 5.25ZM20.4375 8.33984C19.3203 8.33984 18.4375 9.13965 18.4375 10.1172C18.4375 11.0947 19.3203 11.8945 20.4375 11.8945C21.5547 11.8945 22.4688 11.0947 22.4688 10.1172C22.4688 9.13965 21.5547 8.33984 20.4375 8.33984ZM8.5 14.6562L8.875 14.6836C8.27344 15.3809 7.28906 16.4985 7.15625 16.6523L5.8125 16.4062L6.84375 15.3125C7.24609 14.8784 7.85938 14.6255 8.5 14.6562ZM6.21875 19.1953C5.36328 19.9438 4.875 20.9795 4.53125 21.8477C4.1875 22.7158 4.03125 23.4336 4.03125 23.4336L3.71875 24.7188L5.1875 24.4727C5.1875 24.4727 5.98438 24.353 6.96875 24.0625C7.95312 23.772 9.13672 23.3413 10.0312 22.5586L8.625 21.3281C8.17969 21.7178 7.29688 22.0596 6.5 22.3125C6.80469 21.5845 7.25 20.7573 7.625 20.4258L6.21875 19.1953ZM15.2188 20.2344L15.25 20.5625C15.2852 21.123 15.0312 21.6597 14.5312 22.0117L13.25 22.9141L12.9688 21.7383C13.1445 21.6255 14.4219 20.7573 15.2188 20.2344Z" fill="white"/>
</svg>
