<svg width="28" height="21" viewBox="0 0 28 21" fill="none" xmlns="http://www.w3.org/2000/svg">
<path d="M4 0C2.35547 0 1 1.35547 1 3V9.78125C0.390625 10.332 0 11.1211 0 12V21H5V19H23V21H28V12C28 11.1211 27.6094 10.332 27 9.78125V3C27 1.35547 25.6445 0 24 0H4ZM4 2H24C24.5547 2 25 2.44531 25 3V9H23V8C23 6.35547 21.6445 5 20 5H16C15.2344 5 14.5312 5.30078 14 5.78125C13.4688 5.30078 12.7656 5 12 5H8C6.35547 5 5 6.35547 5 8V9H3V3C3 2.44531 3.44531 2 4 2ZM8 7H12C12.5547 7 13 7.44531 13 8V9H7V8C7 7.44531 7.44531 7 8 7ZM16 7H20C20.5547 7 21 7.44531 21 8V9H15V8C15 7.44531 15.4453 7 16 7ZM3 11H25C25.5547 11 26 11.4453 26 12V19H25V17H3V19H2V12C2 11.4453 2.44531 11 3 11Z" fill="#EBBD3E"/>
</svg>
