<svg width="26" height="26" viewBox="0 0 26 26" fill="none" xmlns="http://www.w3.org/2000/svg">
<path d="M20.9062 0.96875C19.8594 0.96875 18.8125 1.375 18 2.1875L2.1875 18L2.125 18.3125L1.03125 23.8125L0.71875 25.2812L2.1875 24.9688L7.6875 23.875L8 23.8125L23.8125 8C25.4375 6.375 25.4375 3.8125 23.8125 2.1875C23 1.375 21.9531 0.96875 20.9062 0.96875ZM20.9062 2.875C21.4102 2.875 21.918 3.10547 22.4062 3.59375C23.3789 4.56641 23.3789 5.62109 22.4062 6.59375L21.6875 7.28125L18.7188 4.3125L19.4062 3.59375C19.8945 3.10547 20.4023 2.875 20.9062 2.875ZM17.3125 5.71875L20.2812 8.6875L8.1875 20.7812C7.53125 19.5 6.5 18.4688 5.21875 17.8125L17.3125 5.71875ZM3.9375 19.4375C5.13672 19.9219 6.07812 20.8633 6.5625 22.0625L3.28125 22.7188L3.9375 19.4375Z" fill="#3FA8F4"/>
</svg>
